<svg width="17" height="19" viewBox="0 0 17 19" fill="none" xmlns="http://www.w3.org/2000/svg">
<path d="M15.3664 2.2379L14.9207 1.72626C14.0755 0.757768 12.7075 0.758055 11.8622 1.72626L2.85482 12.0599L1.06959 17.4149C0.860095 18.0487 1.13984 18.3679 1.69059 18.1265L6.35929 16.0805L15.3664 5.74651C16.2117 4.7783 16.2107 3.20754 15.3664 2.2379ZM9.70925 4.95841L10.3362 5.67739L4.14531 12.7801L3.51832 12.0605L9.70925 4.95841ZM10.6677 6.05797L11.5915 7.11795L5.4008 14.2203L4.47706 13.1607L10.6677 6.05797ZM3.25657 16.8651L2.17108 15.6187L3.22132 12.481L5.99104 15.6577L3.25657 16.8651ZM6.35929 15.3202L5.73279 14.6006L11.9232 7.49824L12.5502 8.2178L6.35929 15.3202ZM12.9115 7.80338L10.0702 4.54457L10.777 3.73352L13.6182 6.99233L12.9115 7.80338Z" fill="black" stroke="#4CAF50"/>
</svg>
