<svg width="375" height="47" viewBox="0 0 375 47" fill="none" xmlns="http://www.w3.org/2000/svg">
<path d="M37.609 19.9805V32H35.1021V22.3545H35.0357L32.2799 24.0811V21.873L35.2515 19.9805H37.609ZM44.3728 19.8145C46.8631 19.8311 49.2205 21.3086 49.2205 25.6748C49.2371 29.7588 47.2947 32.166 44.2732 32.166C41.8494 32.166 40.2059 30.6553 39.9568 28.6133H42.4139C42.6131 29.4932 43.3103 30.0244 44.2732 30.0244C45.9168 30.0244 46.7801 28.5635 46.7801 26.1562H46.6805C46.116 27.2188 44.9373 27.8496 43.5926 27.8496C41.4344 27.8496 39.8406 26.2227 39.824 23.9814C39.824 21.5576 41.6502 19.7979 44.3728 19.8145ZM44.3894 21.7734C43.1609 21.7734 42.2478 22.7197 42.2644 23.915C42.2644 25.0938 43.1443 26.0234 44.3728 26.0234C45.5848 26.0234 46.531 25.0605 46.531 23.8984C46.5144 22.7529 45.618 21.7734 44.3894 21.7734ZM51.9668 30.5391C51.1865 30.5391 50.5557 29.9082 50.5723 29.1445C50.5557 28.3809 51.1865 27.7666 51.9668 27.7666C52.6973 27.7666 53.3447 28.3809 53.3447 29.1445C53.3447 29.9082 52.6973 30.5391 51.9668 30.5391ZM51.9668 24.2139C51.1865 24.2139 50.5557 23.583 50.5723 22.8193C50.5557 22.0557 51.1865 21.4414 51.9668 21.4414C52.6973 21.4414 53.3447 22.0557 53.3447 22.8193C53.3447 23.583 52.6973 24.2139 51.9668 24.2139ZM54.6965 29.875V27.8994L59.7766 19.9805H62.9143V27.8662H64.4416V29.875H62.9143V32H60.5402V29.875H54.6965ZM57.2199 27.8662H60.5734V22.7197H60.4572L57.2199 27.7666V27.8662ZM70.6742 19.9805V32H68.1674V22.3545H68.101L65.3451 24.0811V21.873L68.3168 19.9805H70.6742Z" fill="#010101"/>
<path opacity="0.35" d="M324.528 23C324.528 21.0822 326.082 19.5275 328 19.5275H345C346.918 19.5275 348.472 21.0822 348.472 23V28C348.472 29.9178 346.918 31.4725 345 31.4725H328C326.082 31.4725 324.528 29.9178 324.528 28V23Z" stroke="black" stroke-width="1.05509"/>
<path opacity="0.4" d="M350 24V28.2203C350.849 27.8629 351.401 27.0314 351.401 26.1102C351.401 25.1889 350.849 24.3574 350 24Z" fill="black"/>
<path d="M326 23C326 21.8954 326.895 21 328 21H345C346.105 21 347 21.8954 347 23V28C347 29.1046 346.105 30 345 30H328C326.895 30 326 29.1046 326 28V23Z" fill="black"/>
<path fill-rule="evenodd" clip-rule="evenodd" d="M308.5 22.5875C310.967 22.5876 313.339 23.5551 315.127 25.2898C315.261 25.4237 315.477 25.4221 315.609 25.286L316.896 23.9605C316.963 23.8915 317.001 23.798 317 23.7008C316.999 23.6035 316.961 23.5105 316.893 23.4423C312.201 18.8526 304.799 18.8526 300.107 23.4423C300.039 23.5105 300.001 23.6034 300 23.7007C299.999 23.7979 300.037 23.8914 300.104 23.9605L301.391 25.286C301.523 25.4223 301.739 25.424 301.873 25.2898C303.661 23.5549 306.034 22.5875 308.5 22.5875ZM308.536 26.6724C309.891 26.6723 311.198 27.1864 312.203 28.115C312.338 28.2467 312.552 28.2439 312.685 28.1085L313.97 26.7829C314.038 26.7134 314.075 26.6191 314.074 26.5211C314.073 26.4231 314.034 26.3295 313.965 26.2614C310.906 23.3568 306.169 23.3568 303.109 26.2614C303.04 26.3295 303.001 26.4231 303 26.5212C302.999 26.6192 303.037 26.7135 303.105 26.7829L304.39 28.1085C304.522 28.2439 304.736 28.2467 304.872 28.115C305.876 27.1871 307.182 26.6729 308.536 26.6724ZM311.15 29.3427C311.152 29.441 311.114 29.5357 311.045 29.6046L308.822 31.8948C308.756 31.9621 308.668 32 308.575 32C308.482 32 308.393 31.9621 308.328 31.8948L306.105 29.6046C306.036 29.5357 305.998 29.4409 306 29.3426C306.002 29.2443 306.044 29.1512 306.115 29.0853C307.535 27.8595 309.615 27.8595 311.035 29.0853C311.106 29.1513 311.148 29.2444 311.15 29.3427Z" fill="black"/>
<path d="M284 23C284 22.4477 284.448 22 285 22H286C286.552 22 287 22.4477 287 23V31C287 31.5523 286.552 32 286 32H285C284.448 32 284 31.5523 284 31V23Z" fill="black"/>
<path d="M289 21C289 20.4477 289.448 20 290 20H291C291.552 20 292 20.4477 292 21V31C292 31.5523 291.552 32 291 32H290C289.448 32 289 31.5523 289 31V21Z" fill="black"/>
<path d="M279 26.5C279 25.9477 279.448 25.5 280 25.5H281C281.552 25.5 282 25.9477 282 26.5V31C282 31.5523 281.552 32 281 32H280C279.448 32 279 31.5523 279 31V26.5Z" fill="black"/>
<path d="M274 29C274 28.4477 274.448 28 275 28H276C276.552 28 277 28.4477 277 29V31C277 31.5523 276.552 32 276 32H275C274.448 32 274 31.5523 274 31V29Z" fill="black"/>
</svg>
