<svg width="21" height="19" viewBox="0 0 21 19" fill="none" xmlns="http://www.w3.org/2000/svg">
<path d="M19.3284 1.65771C18.2628 0.596086 16.82 0 15.3159 0C13.8117 0 12.3689 0.596086 11.3034 1.65771L10.4934 2.46771L9.68336 1.65771C8.61782 0.596086 7.17499 0 5.67086 0C4.16673 0 2.7239 0.596086 1.65836 1.65771C0.596276 2.72452 0 4.1686 0 5.67396C0 7.17932 0.596276 8.6234 1.65836 9.69021L9.96086 17.9927C10.0306 18.063 10.1135 18.1188 10.2049 18.1569C10.2963 18.195 10.3944 18.2146 10.4934 18.2146C10.5924 18.2146 10.6904 18.195 10.7818 18.1569C10.8732 18.1188 10.9561 18.063 11.0259 17.9927L19.3284 9.69021C20.3904 8.6234 20.9867 7.17932 20.9867 5.67396C20.9867 4.1686 20.3904 2.72452 19.3284 1.65771V1.65771Z" fill="#4CAF50"/>
</svg>
