<svg width="24" height="24" viewBox="0 0 20 19" fill="none" xmlns="http://www.w3.org/2000/svg">
<path d="M12.0344 14.8656L10.6469 17.1813C10.5789 17.2918 10.4838 17.383 10.3705 17.4463C10.2573 17.5096 10.1297 17.5429 10 17.5429C9.87027 17.5429 9.74269 17.5096 9.62945 17.4463C9.51621 17.383 9.42108 17.2918 9.35312 17.1813L7.96563 14.8656C7.90037 14.7545 7.80723 14.6623 7.69542 14.5982C7.58362 14.534 7.45701 14.5002 7.32812 14.5H1.75C1.55109 14.5 1.36032 14.421 1.21967 14.2803C1.07902 14.1397 1 13.9489 1 13.75V1.75C1 1.55109 1.07902 1.36032 1.21967 1.21967C1.36032 1.07902 1.55109 1 1.75 1H18.25C18.4489 1 18.6397 1.07902 18.7803 1.21967C18.921 1.36032 19 1.55109 19 1.75V13.75C19 13.9489 18.921 14.1397 18.7803 14.2803C18.6397 14.421 18.4489 14.5 18.25 14.5H12.6719C12.543 14.5002 12.4164 14.534 12.3046 14.5982C12.1928 14.6623 12.0996 14.7545 12.0344 14.8656V14.8656Z" stroke="#4CAF50" stroke-width="2" stroke-linecap="round" stroke-linejoin="round"/>
</svg>
