<svg width="24" height="24" viewBox="0 0 24 24" fill="none" xmlns="http://www.w3.org/2000/svg">
<path d="M20.8352 4.55248C19.7697 3.49086 18.3268 2.89478 16.8227 2.89478C15.3186 2.89478 13.8757 3.49086 12.8102 4.55248L12.0002 5.36248L11.1902 4.55248C10.1247 3.49086 8.68183 2.89478 7.17769 2.89478C5.67356 2.89478 4.23073 3.49086 3.16519 4.55248C2.10311 5.6193 1.50684 7.06337 1.50684 8.56874C1.50684 10.0741 2.10311 11.5182 3.16519 12.585L11.4677 20.8875C11.5374 20.9578 11.6204 21.0136 11.7118 21.0517C11.8032 21.0897 11.9012 21.1093 12.0002 21.1093C12.0992 21.1093 12.1972 21.0897 12.2886 21.0517C12.38 21.0136 12.463 20.9578 12.5327 20.8875L20.8352 12.585C21.8973 11.5182 22.4936 10.0741 22.4936 8.56874C22.4936 7.06337 21.8973 5.6193 20.8352 4.55248Z" fill="#C5C5C5"/>
</svg>
