<svg width="21" height="20" viewBox="0 0 21 20" fill="none" xmlns="http://www.w3.org/2000/svg">
<path d="M12.5344 15.3656L11.1469 17.6813C11.0789 17.7918 10.9838 17.883 10.8705 17.9463C10.7573 18.0096 10.6297 18.0429 10.5 18.0429C10.3703 18.0429 10.2427 18.0096 10.1295 17.9463C10.0162 17.883 9.92108 17.7918 9.85312 17.6813L8.46563 15.3656C8.40037 15.2545 8.30723 15.1623 8.19542 15.0982C8.08362 15.034 7.95701 15.0002 7.82812 15H2.25C2.05109 15 1.86032 14.921 1.71967 14.7803C1.57902 14.6397 1.5 14.4489 1.5 14.25V2.25C1.5 2.05109 1.57902 1.86032 1.71967 1.71967C1.86032 1.57902 2.05109 1.5 2.25 1.5H18.75C18.9489 1.5 19.1397 1.57902 19.2803 1.71967C19.421 1.86032 19.5 2.05109 19.5 2.25V14.25C19.5 14.4489 19.421 14.6397 19.2803 14.7803C19.1397 14.921 18.9489 15 18.75 15H13.1719C13.043 15.0002 12.9164 15.034 12.8046 15.0982C12.6928 15.1623 12.5996 15.2545 12.5344 15.3656V15.3656Z" stroke="#B8B8B8" stroke-width="2" stroke-linecap="round" stroke-linejoin="round"/>
</svg>
