<svg width="175" height="32" viewBox="0 0 175 32" fill="none" xmlns="http://www.w3.org/2000/svg">
<g filter="url(#filter0_d_13_54)">
<mask id="path-1-outside-1_13_54" maskUnits="userSpaceOnUse" x="15" y="-1" width="157" height="26" fill="black">
<rect fill="white" x="15" y="-1" width="157" height="26"/>
<path d="M28.8613 7.35156C28.7441 5.91602 27.8066 5.0957 25.9023 5.0957C24.0566 5.0957 23.2363 5.79883 23.207 6.79492C23.1777 7.87891 24.1738 8.49414 26.1367 8.9043L27.8945 9.31445C32.4648 10.2812 34.4863 12.5078 34.5156 15.7598C34.4863 19.9199 31.293 22.2637 25.9316 22.2637C20.4531 22.2637 16.9082 19.8613 16.8496 14.6465H22.1816C22.2695 16.6094 23.6465 17.6641 25.8438 17.6641C27.748 17.6641 28.7734 16.873 28.8027 15.7598C28.7734 14.7344 27.9238 14.1484 25.5508 13.6211L23.4121 13.1523C19.6914 12.332 17.4062 10.4863 17.4062 7.20508C17.377 3.19141 20.9219 0.496094 25.9023 0.496094C31 0.496094 34.1934 3.2207 34.2227 7.35156H28.8613ZM36.8008 22V0.789062H42.3672V9.46094H42.6602L49.2227 0.789062H55.7559L48.4902 10.252L55.9023 22H49.2227L44.3301 13.9434L42.3672 16.4629V22H36.8008ZM57.5137 22V0.789062H63.0801V9.46094H63.373L69.9355 0.789062H76.4688L69.2031 10.252L76.6152 22H69.9355L65.043 13.9434L63.0801 16.4629V22H57.5137ZM90.8535 0.789062H96.4199V14.4121C96.4199 19.2168 92.7578 22.2637 87.3086 22.2637C81.8594 22.2637 78.2266 19.2168 78.2266 14.4121V0.789062H83.793V13.9141C83.793 15.9648 85.2578 17.4297 87.3086 17.4297C89.3887 17.4297 90.8535 15.9648 90.8535 13.9141V0.789062ZM113.998 14.207H118.363L119.506 15.6133C120.136 14.6025 120.473 13.1816 120.473 11.3945C120.473 7.49805 118.861 5.35938 115.961 5.35938C113.031 5.35938 111.42 7.49805 111.42 11.3945C111.42 15.291 113.031 17.4297 115.961 17.4297C116.122 17.4297 116.269 17.4297 116.43 17.4004L113.998 14.207ZM126.215 11.3945C126.215 15.0713 124.984 17.8691 123.021 19.7148L126.215 23.6113H121.234L119.623 21.707C118.48 22.1025 117.25 22.293 115.961 22.293C110.16 22.293 105.678 18.4258 105.678 11.3945C105.678 4.33398 110.16 0.496094 115.961 0.496094C121.703 0.496094 126.215 4.33398 126.215 11.3945ZM135.824 22.3223C131.283 22.3223 128.529 19.6562 128.529 16.375C128.529 13.9727 129.994 12.5371 132.221 11.0137C131.283 9.72461 130.463 8.14258 130.463 6.29688C130.463 3.07422 132.924 0.466797 136.615 0.466797C140.16 0.466797 142.357 2.86914 142.357 5.79883C142.357 7.76172 141.332 9.51953 139.545 10.7793L138.49 11.541L141.303 14.6465C141.889 13.6211 142.24 12.3906 142.24 11.043H146.664C146.664 13.8262 146.02 16.3896 144.584 18.2793L147.924 22H142.357L141.244 20.7988C139.545 21.9121 137.641 22.3223 135.824 22.3223ZM133.832 15.9648C133.832 17.2246 134.77 17.9863 136.234 17.9863C136.879 17.9863 137.538 17.8398 138.197 17.5469L134.916 14.0898C134.301 14.5732 133.832 15.1299 133.832 15.9648ZM134.975 6.35547C134.975 7.08789 135.385 7.82031 136.029 8.64062L136.938 8.08398C137.904 7.46875 138.227 6.76562 138.227 6.17969C138.227 5.47656 137.699 4.83203 136.615 4.83203C135.619 4.86133 134.975 5.44727 134.975 6.35547ZM154.457 22H148.422L155.482 0.789062H163.07L170.102 22H164.096L162.836 17.8398H155.717L154.457 22ZM157.006 13.6211H161.547L159.35 6.50195H159.174L157.006 13.6211Z"/>
</mask>
<path d="M28.8613 7.35156C28.7441 5.91602 27.8066 5.0957 25.9023 5.0957C24.0566 5.0957 23.2363 5.79883 23.207 6.79492C23.1777 7.87891 24.1738 8.49414 26.1367 8.9043L27.8945 9.31445C32.4648 10.2812 34.4863 12.5078 34.5156 15.7598C34.4863 19.9199 31.293 22.2637 25.9316 22.2637C20.4531 22.2637 16.9082 19.8613 16.8496 14.6465H22.1816C22.2695 16.6094 23.6465 17.6641 25.8438 17.6641C27.748 17.6641 28.7734 16.873 28.8027 15.7598C28.7734 14.7344 27.9238 14.1484 25.5508 13.6211L23.4121 13.1523C19.6914 12.332 17.4062 10.4863 17.4062 7.20508C17.377 3.19141 20.9219 0.496094 25.9023 0.496094C31 0.496094 34.1934 3.2207 34.2227 7.35156H28.8613ZM36.8008 22V0.789062H42.3672V9.46094H42.6602L49.2227 0.789062H55.7559L48.4902 10.252L55.9023 22H49.2227L44.3301 13.9434L42.3672 16.4629V22H36.8008ZM57.5137 22V0.789062H63.0801V9.46094H63.373L69.9355 0.789062H76.4688L69.2031 10.252L76.6152 22H69.9355L65.043 13.9434L63.0801 16.4629V22H57.5137ZM90.8535 0.789062H96.4199V14.4121C96.4199 19.2168 92.7578 22.2637 87.3086 22.2637C81.8594 22.2637 78.2266 19.2168 78.2266 14.4121V0.789062H83.793V13.9141C83.793 15.9648 85.2578 17.4297 87.3086 17.4297C89.3887 17.4297 90.8535 15.9648 90.8535 13.9141V0.789062ZM113.998 14.207H118.363L119.506 15.6133C120.136 14.6025 120.473 13.1816 120.473 11.3945C120.473 7.49805 118.861 5.35938 115.961 5.35938C113.031 5.35938 111.42 7.49805 111.42 11.3945C111.42 15.291 113.031 17.4297 115.961 17.4297C116.122 17.4297 116.269 17.4297 116.43 17.4004L113.998 14.207ZM126.215 11.3945C126.215 15.0713 124.984 17.8691 123.021 19.7148L126.215 23.6113H121.234L119.623 21.707C118.48 22.1025 117.25 22.293 115.961 22.293C110.16 22.293 105.678 18.4258 105.678 11.3945C105.678 4.33398 110.16 0.496094 115.961 0.496094C121.703 0.496094 126.215 4.33398 126.215 11.3945ZM135.824 22.3223C131.283 22.3223 128.529 19.6562 128.529 16.375C128.529 13.9727 129.994 12.5371 132.221 11.0137C131.283 9.72461 130.463 8.14258 130.463 6.29688C130.463 3.07422 132.924 0.466797 136.615 0.466797C140.16 0.466797 142.357 2.86914 142.357 5.79883C142.357 7.76172 141.332 9.51953 139.545 10.7793L138.49 11.541L141.303 14.6465C141.889 13.6211 142.24 12.3906 142.24 11.043H146.664C146.664 13.8262 146.02 16.3896 144.584 18.2793L147.924 22H142.357L141.244 20.7988C139.545 21.9121 137.641 22.3223 135.824 22.3223ZM133.832 15.9648C133.832 17.2246 134.77 17.9863 136.234 17.9863C136.879 17.9863 137.538 17.8398 138.197 17.5469L134.916 14.0898C134.301 14.5732 133.832 15.1299 133.832 15.9648ZM134.975 6.35547C134.975 7.08789 135.385 7.82031 136.029 8.64062L136.938 8.08398C137.904 7.46875 138.227 6.76562 138.227 6.17969C138.227 5.47656 137.699 4.83203 136.615 4.83203C135.619 4.86133 134.975 5.44727 134.975 6.35547ZM154.457 22H148.422L155.482 0.789062H163.07L170.102 22H164.096L162.836 17.8398H155.717L154.457 22ZM157.006 13.6211H161.547L159.35 6.50195H159.174L157.006 13.6211Z" fill="#4CAF50"/>
<path d="M28.8613 7.35156L27.8646 7.43292L27.9396 8.35156H28.8613V7.35156ZM23.207 6.79492L22.2075 6.76552L22.2074 6.7679L23.207 6.79492ZM26.1367 8.9043L26.3639 7.93046L26.3526 7.92781L26.3413 7.92544L26.1367 8.9043ZM27.8945 9.31445L27.6673 10.2883L27.6774 10.2907L27.6876 10.2928L27.8945 9.31445ZM34.5156 15.7598L35.5156 15.7668L35.5157 15.7588L35.5156 15.7508L34.5156 15.7598ZM16.8496 14.6465V13.6465H15.8383L15.8497 14.6577L16.8496 14.6465ZM22.1816 14.6465L23.1806 14.6018L23.1379 13.6465H22.1816V14.6465ZM28.8027 15.7598L29.8024 15.7861L29.8031 15.7586L29.8023 15.7312L28.8027 15.7598ZM25.5508 13.6211L25.7677 12.6449L25.7649 12.6443L25.5508 13.6211ZM23.4121 13.1523L23.1968 14.1289L23.198 14.1292L23.4121 13.1523ZM17.4062 7.20508H18.4063L18.4062 7.19778L17.4062 7.20508ZM34.2227 7.35156V8.35156H35.2298L35.2226 7.34447L34.2227 7.35156ZM29.858 7.2702C29.7822 6.34201 29.4238 5.49422 28.6716 4.90042C27.9446 4.32641 26.9822 4.0957 25.9023 4.0957V6.0957C26.7268 6.0957 27.1853 6.27515 27.4324 6.47019C27.6543 6.64543 27.8232 6.92557 27.8646 7.43292L29.858 7.2702ZM25.9023 4.0957C24.874 4.0957 23.9797 4.28809 23.3093 4.74613C22.593 5.23562 22.2311 5.96344 22.2075 6.76552L24.2066 6.82432C24.2123 6.63031 24.2751 6.50852 24.4377 6.39742C24.6463 6.25488 25.0849 6.0957 25.9023 6.0957V4.0957ZM22.2074 6.7679C22.1822 7.70164 22.6349 8.42428 23.3546 8.92382C24.0142 9.38158 24.9148 9.67057 25.9322 9.88316L26.3413 7.92544C25.3958 7.72787 24.8169 7.50416 24.495 7.28077C24.2333 7.09916 24.2026 6.97219 24.2067 6.82194L22.2074 6.7679ZM25.9095 9.87814L27.6673 10.2883L28.1218 8.34061L26.3639 7.93046L25.9095 9.87814ZM27.6876 10.2928C29.8634 10.7531 31.3049 11.4883 32.1997 12.3861C33.0705 13.2599 33.503 14.3668 33.5157 15.7688L35.5156 15.7508C35.4989 13.9008 34.9061 12.2685 33.6163 10.9743C32.3504 9.70408 30.496 8.84263 28.1015 8.3361L27.6876 10.2928ZM33.5156 15.7527C33.503 17.5485 32.8239 18.8697 31.6225 19.7723C30.3833 20.7032 28.4846 21.2637 25.9316 21.2637V23.2637C28.74 23.2637 31.1187 22.6522 32.8238 21.3713C34.5667 20.0619 35.4989 18.1312 35.5156 15.7668L33.5156 15.7527ZM25.9316 21.2637C23.3189 21.2637 21.3168 20.6882 19.9797 19.6273C18.6788 18.595 17.8761 16.9986 17.8495 14.6352L15.8497 14.6577C15.8817 17.5092 16.8808 19.7214 18.7366 21.194C20.5563 22.6379 23.0658 23.2637 25.9316 23.2637V21.2637ZM16.8496 15.6465H22.1816V13.6465H16.8496V15.6465ZM21.1826 14.6912C21.2374 15.9143 21.708 16.9539 22.5931 17.6691C23.455 18.3656 24.5972 18.6641 25.8438 18.6641V16.6641C24.8931 16.6641 24.2481 16.4351 23.8502 16.1136C23.4756 15.8108 23.2138 15.3416 23.1806 14.6018L21.1826 14.6912ZM25.8438 18.6641C26.9183 18.6641 27.869 18.4432 28.5867 17.9577C29.3369 17.4501 29.7788 16.683 29.8024 15.7861L27.8031 15.7335C27.7974 15.9498 27.7119 16.1348 27.4661 16.3011C27.1876 16.4895 26.6735 16.6641 25.8438 16.6641V18.6641ZM29.8023 15.7312C29.791 15.3331 29.697 14.936 29.48 14.5637C29.2656 14.1958 28.9622 13.9054 28.609 13.6707C27.9332 13.2218 26.9728 12.9127 25.7677 12.6449L25.3339 14.5973C26.5019 14.8568 27.1527 15.1044 27.5023 15.3366C27.6618 15.4425 27.7247 15.5238 27.752 15.5707C27.7767 15.6131 27.7999 15.6737 27.8031 15.7883L29.8023 15.7312ZM25.7649 12.6443L23.6262 12.1755L23.198 14.1292L25.3367 14.5979L25.7649 12.6443ZM23.6274 12.1758C21.8629 11.7868 20.5547 11.1774 19.6988 10.3729C18.8738 9.5975 18.4062 8.58425 18.4062 7.20508H16.4062C16.4062 9.10715 17.0812 10.6574 18.329 11.8302C19.5459 12.974 21.2407 13.6976 23.1968 14.1289L23.6274 12.1758ZM18.4062 7.19778C18.394 5.51749 19.1177 4.12816 20.3912 3.13357C21.6836 2.12416 23.5833 1.49609 25.9023 1.49609V-0.503906C23.2409 -0.503906 20.8779 0.215679 19.1601 1.55735C17.4233 2.91383 16.3892 4.87899 16.4063 7.21238L18.4062 7.19778ZM25.9023 1.49609C28.2806 1.49609 30.1071 2.13134 31.3235 3.14346C32.5225 4.1411 33.21 5.56937 33.2227 7.35865L35.2226 7.34447C35.206 5.0029 34.2822 3.00343 32.6027 1.60605C30.9407 0.223149 28.6217 -0.503906 25.9023 -0.503906V1.49609ZM34.2227 6.35156H28.8613V8.35156H34.2227V6.35156ZM36.8008 22H35.8008V23H36.8008V22ZM36.8008 0.789062V-0.210938H35.8008V0.789062H36.8008ZM42.3672 0.789062H43.3672V-0.210938H42.3672V0.789062ZM42.3672 9.46094H41.3672V10.4609H42.3672V9.46094ZM42.6602 9.46094V10.4609H43.1575L43.4576 10.0644L42.6602 9.46094ZM49.2227 0.789062V-0.210938H48.7253L48.4253 0.18562L49.2227 0.789062ZM55.7559 0.789062L56.549 1.39806L57.7844 -0.210938H55.7559V0.789062ZM48.4902 10.252L47.6971 9.64295L47.2725 10.1959L47.6445 10.7855L48.4902 10.252ZM55.9023 22V23H57.7157L56.7481 21.4664L55.9023 22ZM49.2227 22L48.3679 22.5191L48.66 23H49.2227V22ZM44.3301 13.9434L45.1848 13.4243L44.4323 12.1851L43.5412 13.3288L44.3301 13.9434ZM42.3672 16.4629L41.5783 15.8483L41.3672 16.1193V16.4629H42.3672ZM42.3672 22V23H43.3672V22H42.3672ZM37.8008 22V0.789062H35.8008V22H37.8008ZM36.8008 1.78906H42.3672V-0.210938H36.8008V1.78906ZM41.3672 0.789062V9.46094H43.3672V0.789062H41.3672ZM42.3672 10.4609H42.6602V8.46094H42.3672V10.4609ZM43.4576 10.0644L50.0201 1.39251L48.4253 0.18562L41.8627 8.85749L43.4576 10.0644ZM49.2227 1.78906H55.7559V-0.210938H49.2227V1.78906ZM54.9627 0.180064L47.6971 9.64295L49.2834 10.861L56.549 1.39806L54.9627 0.180064ZM47.6445 10.7855L55.0566 22.5336L56.7481 21.4664L49.336 9.71836L47.6445 10.7855ZM55.9023 21H49.2227V23H55.9023V21ZM50.0774 21.4809L45.1848 13.4243L43.4753 14.4624L48.3679 22.5191L50.0774 21.4809ZM43.5412 13.3288L41.5783 15.8483L43.156 17.0775L45.1189 14.5579L43.5412 13.3288ZM41.3672 16.4629V22H43.3672V16.4629H41.3672ZM42.3672 21H36.8008V23H42.3672V21ZM57.5137 22H56.5137V23H57.5137V22ZM57.5137 0.789062V-0.210938H56.5137V0.789062H57.5137ZM63.0801 0.789062H64.0801V-0.210938H63.0801V0.789062ZM63.0801 9.46094H62.0801V10.4609H63.0801V9.46094ZM63.373 9.46094V10.4609H63.8704L64.1705 10.0644L63.373 9.46094ZM69.9355 0.789062V-0.210938H69.4382L69.1381 0.18562L69.9355 0.789062ZM76.4688 0.789062L77.2619 1.39806L78.4973 -0.210938H76.4688V0.789062ZM69.2031 10.252L68.41 9.64295L67.9854 10.1959L68.3574 10.7855L69.2031 10.252ZM76.6152 22V23H78.4286L77.461 21.4664L76.6152 22ZM69.9355 22L69.0808 22.5191L69.3729 23H69.9355V22ZM65.043 13.9434L65.8977 13.4243L65.1451 12.1851L64.2541 13.3288L65.043 13.9434ZM63.0801 16.4629L62.2912 15.8483L62.0801 16.1193V16.4629H63.0801ZM63.0801 22V23H64.0801V22H63.0801ZM58.5137 22V0.789062H56.5137V22H58.5137ZM57.5137 1.78906H63.0801V-0.210938H57.5137V1.78906ZM62.0801 0.789062V9.46094H64.0801V0.789062H62.0801ZM63.0801 10.4609H63.373V8.46094H63.0801V10.4609ZM64.1705 10.0644L70.733 1.39251L69.1381 0.18562L62.5756 8.85749L64.1705 10.0644ZM69.9355 1.78906H76.4688V-0.210938H69.9355V1.78906ZM75.6756 0.180064L68.41 9.64295L69.9963 10.861L77.2619 1.39806L75.6756 0.180064ZM68.3574 10.7855L75.7695 22.5336L77.461 21.4664L70.0489 9.71836L68.3574 10.7855ZM76.6152 21H69.9355V23H76.6152V21ZM70.7903 21.4809L65.8977 13.4243L64.1882 14.4624L69.0808 22.5191L70.7903 21.4809ZM64.2541 13.3288L62.2912 15.8483L63.8689 17.0775L65.8318 14.5579L64.2541 13.3288ZM62.0801 16.4629V22H64.0801V16.4629H62.0801ZM63.0801 21H57.5137V23H63.0801V21ZM90.8535 0.789062V-0.210938H89.8535V0.789062H90.8535ZM96.4199 0.789062H97.4199V-0.210938H96.4199V0.789062ZM78.2266 0.789062V-0.210938H77.2266V0.789062H78.2266ZM83.793 0.789062H84.793V-0.210938H83.793V0.789062ZM90.8535 1.78906H96.4199V-0.210938H90.8535V1.78906ZM95.4199 0.789062V14.4121H97.4199V0.789062H95.4199ZM95.4199 14.4121C95.4199 16.541 94.6184 18.2188 93.2587 19.3789C91.8828 20.5528 89.8534 21.2637 87.3086 21.2637V23.2637C90.213 23.2637 92.7393 22.4511 94.5568 20.9004C96.3904 19.3359 97.4199 17.0879 97.4199 14.4121H95.4199ZM87.3086 21.2637C84.7639 21.2637 82.7429 20.5529 81.3749 19.3804C80.0228 18.2214 79.2266 16.5437 79.2266 14.4121H77.2266C77.2266 17.0852 78.2468 19.3333 80.0733 20.8989C81.8841 22.451 84.4041 23.2637 87.3086 23.2637V21.2637ZM79.2266 14.4121V0.789062H77.2266V14.4121H79.2266ZM78.2266 1.78906H83.793V-0.210938H78.2266V1.78906ZM82.793 0.789062V13.9141H84.793V0.789062H82.793ZM82.793 13.9141C82.793 16.5171 84.7055 18.4297 87.3086 18.4297V16.4297C85.8101 16.4297 84.793 15.4126 84.793 13.9141H82.793ZM87.3086 18.4297C88.5895 18.4297 89.7366 17.9748 90.5661 17.1501C91.3958 16.3252 91.8535 15.1843 91.8535 13.9141H89.8535C89.8535 14.6947 89.5788 15.3115 89.1561 15.7317C88.7331 16.1522 88.1078 16.4297 87.3086 16.4297V18.4297ZM91.8535 13.9141V0.789062H89.8535V13.9141H91.8535ZM113.998 14.207V13.207H111.98L113.202 14.8129L113.998 14.207ZM118.363 14.207L119.139 13.5764L118.839 13.207H118.363V14.207ZM119.506 15.6133L118.73 16.2439L119.613 17.3315L120.355 16.1422L119.506 15.6133ZM116.43 17.4004L116.609 18.3843L118.214 18.0924L117.225 16.7946L116.43 17.4004ZM123.021 19.7148L122.336 18.9863L121.656 19.6262L122.248 20.3487L123.021 19.7148ZM126.215 23.6113V24.6113H128.327L126.988 22.9775L126.215 23.6113ZM121.234 23.6113L120.471 24.2573L120.771 24.6113H121.234V23.6113ZM119.623 21.707L120.386 21.0611L119.944 20.5378L119.296 20.762L119.623 21.707ZM113.998 15.207H118.363V13.207H113.998V15.207ZM117.587 14.8376L118.73 16.2439L120.282 14.9827L119.139 13.5764L117.587 14.8376ZM120.355 16.1422C121.118 14.9176 121.473 13.2908 121.473 11.3945H119.473C119.473 13.0724 119.154 14.2874 118.657 15.0844L120.355 16.1422ZM121.473 11.3945C121.473 9.33008 121.049 7.57677 120.105 6.31623C119.128 5.01165 117.686 4.35938 115.961 4.35938V6.35938C117.137 6.35938 117.951 6.77644 118.504 7.51531C119.091 8.29823 119.473 9.5625 119.473 11.3945H121.473ZM115.961 4.35938C114.225 4.35938 112.775 5.00909 111.793 6.3144C110.843 7.57573 110.42 9.33026 110.42 11.3945H112.42C112.42 9.56232 112.802 8.29927 113.391 7.51715C113.946 6.779 114.767 6.35938 115.961 6.35938V4.35938ZM110.42 11.3945C110.42 13.4588 110.843 15.2133 111.793 16.4747C112.775 17.78 114.225 18.4297 115.961 18.4297V16.4297C114.767 16.4297 113.946 16.0101 113.391 15.2719C112.802 14.4898 112.42 13.2267 112.42 11.3945H110.42ZM115.961 18.4297C116.112 18.4297 116.346 18.432 116.609 18.3843L116.251 16.4165C116.191 16.4273 116.132 16.4297 115.961 16.4297V18.4297ZM117.225 16.7946L114.794 13.6012L113.202 14.8129L115.634 18.0062L117.225 16.7946ZM125.215 11.3945C125.215 14.8395 124.068 17.3579 122.336 18.9863L123.707 20.4434C125.9 18.3804 127.215 15.303 127.215 11.3945H125.215ZM122.248 20.3487L125.441 24.2452L126.988 22.9775L123.795 19.081L122.248 20.3487ZM126.215 22.6113H121.234V24.6113H126.215V22.6113ZM121.998 22.9654L120.386 21.0611L118.86 22.353L120.471 24.2573L121.998 22.9654ZM119.296 20.762C118.27 21.1172 117.152 21.293 115.961 21.293V23.293C117.348 23.293 118.691 23.0879 119.95 22.652L119.296 20.762ZM115.961 21.293C113.285 21.293 110.982 20.4043 109.351 18.7734C107.724 17.1459 106.678 14.6917 106.678 11.3945H104.678C104.678 15.1286 105.873 18.1236 107.937 20.1876C109.997 22.2481 112.837 23.293 115.961 23.293V21.293ZM106.678 11.3945C106.678 8.08171 107.724 5.62841 109.35 4.00542C110.98 2.37875 113.283 1.49609 115.961 1.49609V-0.503906C112.839 -0.503906 109.999 0.532386 107.938 2.5898C105.872 4.65088 104.678 7.6468 104.678 11.3945H106.678ZM115.961 1.49609C118.608 1.49609 120.903 2.37734 122.535 4.00542C124.162 5.62953 125.215 8.08355 125.215 11.3945H127.215C127.215 7.64497 126.012 4.64977 123.948 2.5898C121.888 0.533795 119.056 -0.503906 115.961 -0.503906V1.49609ZM132.221 11.0137L132.785 11.839L133.635 11.2578L133.029 10.4255L132.221 11.0137ZM139.545 10.7793L138.969 9.9619L138.959 9.96862L139.545 10.7793ZM138.49 11.541L137.905 10.7303L136.999 11.3843L137.749 12.2123L138.49 11.541ZM141.303 14.6465L140.562 15.3178L141.487 16.3396L142.171 15.1426L141.303 14.6465ZM142.24 11.043V10.043H141.24V11.043H142.24ZM146.664 11.043H147.664V10.043H146.664V11.043ZM144.584 18.2793L143.788 17.6744L143.288 18.3324L143.84 18.9473L144.584 18.2793ZM147.924 22V23H150.165L148.668 21.332L147.924 22ZM142.357 22L141.624 22.6798L141.921 23H142.357V22ZM141.244 20.7988L141.978 20.1191L141.403 19.4992L140.696 19.9624L141.244 20.7988ZM138.197 17.5469L138.603 18.4607L139.897 17.8856L138.923 16.8584L138.197 17.5469ZM134.916 14.0898L135.641 13.4014L135.014 12.7408L134.298 13.3035L134.916 14.0898ZM136.029 8.64062L135.243 9.25845L135.793 9.95838L136.552 9.49323L136.029 8.64062ZM136.938 8.08398L137.46 8.93659L137.467 8.93218L137.474 8.92765L136.938 8.08398ZM136.615 4.83203V3.83203H136.601L136.586 3.83246L136.615 4.83203ZM135.824 21.3223C131.685 21.3223 129.529 18.9649 129.529 16.375H127.529C127.529 20.3476 130.881 23.3223 135.824 23.3223V21.3223ZM129.529 16.375C129.529 14.5101 130.597 13.3362 132.785 11.839L131.656 10.1884C129.391 11.738 127.529 13.4352 127.529 16.375H129.529ZM133.029 10.4255C132.148 9.21384 131.463 7.83927 131.463 6.29688H129.463C129.463 8.44589 130.418 10.2354 131.412 11.6018L133.029 10.4255ZM131.463 6.29688C131.463 3.64584 133.457 1.4668 136.615 1.4668V-0.533203C132.391 -0.533203 129.463 2.5026 129.463 6.29688H131.463ZM136.615 1.4668C139.633 1.4668 141.357 3.44593 141.357 5.79883H143.357C143.357 2.29235 140.688 -0.533203 136.615 -0.533203V1.4668ZM141.357 5.79883C141.357 7.37972 140.54 8.85419 138.969 9.96196L140.121 11.5966C142.124 10.1849 143.357 8.14372 143.357 5.79883H141.357ZM138.959 9.96862L137.905 10.7303L139.076 12.3517L140.13 11.59L138.959 9.96862ZM137.749 12.2123L140.562 15.3178L142.044 13.9752L139.231 10.8697L137.749 12.2123ZM142.171 15.1426C142.843 13.9674 143.24 12.5661 143.24 11.043H141.24C141.24 12.2152 140.935 13.2748 140.434 14.1503L142.171 15.1426ZM142.24 12.043H146.664V10.043H142.24V12.043ZM145.664 11.043C145.664 13.6892 145.049 16.014 143.788 17.6744L145.38 18.8842C146.99 16.7653 147.664 13.9632 147.664 11.043H145.664ZM143.84 18.9473L147.18 22.668L148.668 21.332L145.328 17.6113L143.84 18.9473ZM147.924 21H142.357V23H147.924V21ZM143.091 21.3202L141.978 20.1191L140.511 21.4786L141.624 22.6798L143.091 21.3202ZM140.696 19.9624C139.195 20.9459 137.493 21.3223 135.824 21.3223V23.3223C137.789 23.3223 139.895 22.8783 141.792 21.6353L140.696 19.9624ZM132.832 15.9648C132.832 16.8633 133.177 17.661 133.844 18.2162C134.489 18.7536 135.339 18.9863 136.234 18.9863V16.9863C135.665 16.9863 135.314 16.8382 135.124 16.6798C134.955 16.5392 134.832 16.3261 134.832 15.9648H132.832ZM136.234 18.9863C137.033 18.9863 137.83 18.8044 138.603 18.4607L137.791 16.6331C137.246 16.8753 136.725 16.9863 136.234 16.9863V18.9863ZM138.923 16.8584L135.641 13.4014L134.191 14.7783L137.472 18.2353L138.923 16.8584ZM134.298 13.3035C133.593 13.858 132.832 14.6721 132.832 15.9648H134.832C134.832 15.5877 135.009 15.2885 135.534 14.8762L134.298 13.3035ZM133.975 6.35547C133.975 7.45055 134.581 8.41625 135.243 9.25845L136.816 8.0228C136.188 7.22437 135.975 6.72523 135.975 6.35547H133.975ZM136.552 9.49323L137.46 8.93659L136.415 7.23138L135.507 7.78802L136.552 9.49323ZM137.474 8.92765C138.66 8.17286 139.227 7.18215 139.227 6.17969H137.227C137.227 6.3491 137.148 6.76464 136.401 7.24032L137.474 8.92765ZM139.227 6.17969C139.227 5.57374 138.996 4.96386 138.509 4.51047C138.022 4.0564 137.358 3.83203 136.615 3.83203V5.83203C136.957 5.83203 137.099 5.92993 137.146 5.97391C137.194 6.01856 137.227 6.08251 137.227 6.17969H139.227ZM136.586 3.83246C135.902 3.85257 135.243 4.06794 134.743 4.52936C134.232 5.00099 133.975 5.65101 133.975 6.35547H135.975C135.975 6.15173 136.039 6.05468 136.1 5.99896C136.171 5.93303 136.332 5.84079 136.645 5.8316L136.586 3.83246ZM154.457 22V23H155.199L155.414 22.2898L154.457 22ZM148.422 22L147.473 21.6842L147.035 23H148.422V22ZM155.482 0.789062V-0.210938H154.761L154.534 0.473228L155.482 0.789062ZM163.07 0.789062L164.02 0.474408L163.792 -0.210938H163.07V0.789062ZM170.102 22V23H171.487L171.051 21.6853L170.102 22ZM164.096 22L163.139 22.2898L163.354 23H164.096V22ZM162.836 17.8398L163.793 17.55L163.578 16.8398H162.836V17.8398ZM155.717 17.8398V16.8398H154.975L154.76 17.55L155.717 17.8398ZM157.006 13.6211L156.049 13.3298L155.656 14.6211H157.006V13.6211ZM161.547 13.6211V14.6211H162.902L162.502 13.3262L161.547 13.6211ZM159.35 6.50195L160.305 6.20704L160.088 5.50195H159.35V6.50195ZM159.174 6.50195V5.50195H158.433L158.217 6.21063L159.174 6.50195ZM154.457 21H148.422V23H154.457V21ZM149.371 22.3158L156.431 1.1049L154.534 0.473228L147.473 21.6842L149.371 22.3158ZM155.482 1.78906H163.07V-0.210938H155.482V1.78906ZM162.121 1.10372L169.152 22.3147L171.051 21.6853L164.02 0.474408L162.121 1.10372ZM170.102 21H164.096V23H170.102V21ZM165.053 21.7102L163.793 17.55L161.879 18.1297L163.139 22.2898L165.053 21.7102ZM162.836 16.8398H155.717V18.8398H162.836V16.8398ZM154.76 17.55L153.5 21.7102L155.414 22.2898L156.674 18.1297L154.76 17.55ZM157.006 14.6211H161.547V12.6211H157.006V14.6211ZM162.502 13.3262L160.305 6.20704L158.394 6.79687L160.591 13.916L162.502 13.3262ZM159.35 5.50195H159.174V7.50195H159.35V5.50195ZM158.217 6.21063L156.049 13.3298L157.962 13.9124L160.13 6.79327L158.217 6.21063Z" fill="#3E3E3E" mask="url(#path-1-outside-1_13_54)"/>
</g>
<defs>
<filter id="filter0_d_13_54" x="-4" y="0.466797" width="183" height="31.5332" filterUnits="userSpaceOnUse" color-interpolation-filters="sRGB">
<feFlood flood-opacity="0" result="BackgroundImageFix"/>
<feColorMatrix in="SourceAlpha" type="matrix" values="0 0 0 0 0 0 0 0 0 0 0 0 0 0 0 0 0 0 127 0" result="hardAlpha"/>
<feOffset dy="4"/>
<feGaussianBlur stdDeviation="2"/>
<feComposite in2="hardAlpha" operator="out"/>
<feColorMatrix type="matrix" values="0 0 0 0 0 0 0 0 0 0 0 0 0 0 0 0 0 0 0.25 0"/>
<feBlend mode="normal" in2="BackgroundImageFix" result="effect1_dropShadow_13_54"/>
<feBlend mode="normal" in="SourceGraphic" in2="effect1_dropShadow_13_54" result="shape"/>
</filter>
</defs>
</svg>
