<svg width="74" height="25" viewBox="0 0 74 25" fill="none" xmlns="http://www.w3.org/2000/svg">
<rect width="74" height="25" rx="12.5" fill="#D9D9D9"/>
<path d="M20.7017 5.55957V6.46777C20.7017 7.32471 20.7017 8.39404 20.4526 9.73438H22.1519V11.1992H9.94971V9.73438H18.563C18.7827 8.65039 18.8267 7.77881 18.8413 7.03906H11.4438V5.55957H20.7017ZM20.6431 12.1367V15.8721H13.2017V16.8096H21.0093V18.2451H11.3413V14.4658H18.7974V13.5869H11.3267V12.1367H20.6431ZM28.3354 7.09766C28.3208 8.70898 29.2583 10.2617 31.397 10.9355L30.4741 12.3711C28.98 11.917 27.9692 10.9722 27.3979 9.77832C26.812 11.0601 25.772 12.0635 24.2192 12.5469L23.2817 11.082C25.4937 10.3936 26.4458 8.67969 26.4604 6.93652V5.70605H28.3354V7.09766ZM33.9897 5.01758V8.26953H35.7915V9.83691H33.9897V13.0742H32.1147V5.01758H33.9897ZM33.9897 13.6309V18.3477H32.1147V15.1104H25.0103V13.6309H33.9897ZM48.4058 5.01758V18.3477H46.6333V5.01758H48.4058ZM45.6812 5.2373V17.7324H43.9233V11.0967H42.1655V9.58789H43.9233V5.2373H45.6812ZM41.0962 8.5918C41.0962 10.8037 41.7847 13.0449 43.7329 14.1582L42.6343 15.5352C41.4478 14.832 40.6641 13.6382 40.2173 12.21C39.7559 13.7627 38.9502 15.0811 37.7271 15.8281L36.5991 14.4512C38.562 13.25 39.2944 10.8477 39.2944 8.5918V7.87402H37.1118V6.37988H43.1177V7.87402H41.0962V8.5918Z" fill="#2F2E36"/>
<path d="M54.3047 7.45996L63.6949 16.5403" stroke="#4CAF50" stroke-width="2" stroke-linecap="round" stroke-linejoin="round"/>
<path d="M63.54 7.30469C59.994 10.9718 58.0058 13.0278 54.4597 16.6949" stroke="#4CAF50" stroke-width="2" stroke-linecap="round" stroke-linejoin="round"/>
</svg>
