<svg width="111" height="49" viewBox="0 0 111 49" fill="none" xmlns="http://www.w3.org/2000/svg">
<rect width="111" height="49" rx="24.5" fill="#D9D9D9"/>
<path d="M17.75 24H34.25" stroke="#4CAF50" stroke-width="2" stroke-linecap="round" stroke-linejoin="round"/>
<path d="M26 15.75V32.25" stroke="#4CAF50" stroke-width="2" stroke-linecap="round" stroke-linejoin="round"/>
<path d="M56.542 17.2715V18.3613C56.542 19.3896 56.542 20.6729 56.2432 22.2812H58.2822V24.0391H43.6396V22.2812H53.9756C54.2393 20.9805 54.292 19.9346 54.3096 19.0469H45.4326V17.2715H56.542ZM56.4717 25.1641V29.6465H47.542V30.7715H56.9111V32.4941H45.3096V27.959H54.2568V26.9043H45.292V25.1641H56.4717ZM64.917 19.6094C64.917 21.1475 65.4883 22.8701 66.9912 23.9512C68.4854 22.8789 69.0654 21.1562 69.0654 19.6094V17.7637H71.333V19.6094C71.3154 21.543 72.1592 23.5117 74.374 24.4082L73.1787 26.0781C71.6934 25.4453 70.7354 24.3115 70.1904 22.9141C69.6191 24.3906 68.6084 25.6387 66.9912 26.3066C65.3564 25.6475 64.3369 24.3818 63.7744 22.8965C63.2119 24.2852 62.2451 25.4365 60.7861 26.0781L59.626 24.4082C61.7705 23.4766 62.667 21.4727 62.667 19.6094V17.7637H64.917V19.6094ZM74.2861 28.8203V30.6309H59.6963V28.8203H74.2861ZM89.2002 16.6211V32.6172H86.9326V16.6211H89.2002ZM84.4014 18.291C84.4014 23.1426 82.6963 27.168 76.9834 29.875L75.8057 28.082C79.9365 26.1309 81.7559 23.5996 82.1162 20.0488H76.667V18.291H84.4014Z" fill="#2F2E36"/>
</svg>
