<svg width="18" height="16" viewBox="0 0 18 16" fill="none" xmlns="http://www.w3.org/2000/svg">
<path d="M15.7979 0H1.95255C0.857937 0 0 0.857937 0 1.92296V10.739C0 11.804 0.857937 12.662 1.95255 12.662H3.99384V15.9754L7.07058 12.662H15.8275C16.8925 12.662 17.78 11.804 17.78 10.739V1.92296C17.7504 0.857937 16.8925 0 15.7979 0Z" fill="#4FD1D9"/>
<path d="M4.14194 7.57344C4.82817 7.57344 5.38447 7.01714 5.38447 6.33091C5.38447 5.64468 4.82817 5.08838 4.14194 5.08838C3.45571 5.08838 2.89941 5.64468 2.89941 6.33091C2.89941 7.01714 3.45571 7.57344 4.14194 7.57344Z" fill="white"/>
<path d="M8.87534 7.57344C9.56157 7.57344 10.1179 7.01714 10.1179 6.33091C10.1179 5.64468 9.56157 5.08838 8.87534 5.08838C8.18911 5.08838 7.63281 5.64468 7.63281 6.33091C7.63281 7.01714 8.18911 7.57344 8.87534 7.57344Z" fill="white"/>
<path d="M13.6087 7.57344C14.295 7.57344 14.8513 7.01714 14.8513 6.33091C14.8513 5.64468 14.295 5.08838 13.6087 5.08838C12.9225 5.08838 12.3662 5.64468 12.3662 6.33091C12.3662 7.01714 12.9225 7.57344 13.6087 7.57344Z" fill="white"/>
</svg>
