<svg width="100" height="50" viewBox="0 0 100 50" fill="none" xmlns="http://www.w3.org/2000/svg">
<rect width="100" height="50" rx="25" fill="#D9D9D9"/>
<path d="M31.4844 16.2715C33.8223 16.2715 35.5098 17.5898 35.5098 19.5234C35.5098 21.0879 34.3584 22.2832 32.6445 22.6523V23.8125C33.8926 23.7422 35.1494 23.6279 36.3184 23.4609L36.4941 25.0957C33.207 25.6758 29.5332 25.7461 26.8613 25.7461L26.6328 23.9707C27.7402 23.9707 29.0322 23.9619 30.3945 23.918V22.6699C28.6279 22.3184 27.4414 21.1143 27.459 19.5234C27.4414 17.5898 29.1289 16.2715 31.4844 16.2715ZM31.4844 17.959C30.3418 17.9766 29.5332 18.5215 29.5508 19.5234C29.5332 20.4902 30.3418 21.0703 31.4844 21.0703C32.627 21.0703 33.4004 20.4902 33.4004 19.5234C33.4004 18.5215 32.627 17.9766 31.4844 17.959ZM39.4648 15.6387V20.666H41.5039V22.5293H39.4648V27.8379H37.2148V15.6387H39.4648ZM40.0098 29.5254V31.3184H28.7422V26.7656H30.9922V29.5254H40.0098ZM57.3672 27.9961V29.8418H42.7246V27.9961H46.4688V25.5527H44.4121V20.1738H53.4648V18.4512H44.3945V16.6582H55.6797V21.9668H46.6621V23.7422H56.0488V25.5527H53.7812V27.9961H57.3672ZM48.6484 27.9961H51.584V25.5527H48.6484V27.9961Z" fill="#2F2E36"/>
<path d="M71 35C76.5228 35 81 30.5228 81 25C81 19.4772 76.5228 15 71 15C65.4772 15 61 19.4772 61 25C61 30.5228 65.4772 35 71 35Z" fill="#4BD37B"/>
<path d="M75.6667 19L68.6667 26.2L66.3333 23.8L64 26.2L68.6667 31L78 21.4L75.6667 19Z" fill="white"/>
</svg>
