<svg width="100" height="50" viewBox="0 0 100 50" fill="none" xmlns="http://www.w3.org/2000/svg">
<rect width="100" height="50" rx="25" fill="#D9D9D9"/>
<path d="M40.0625 25.7637V31.6172H37.8125V27.5566H29.0586V25.7637H40.0625ZM40.0625 15.6211V25.0078H37.8125V15.6211H40.0625ZM31.291 16.5C33.7871 16.4824 35.668 18.1348 35.668 20.3848C35.668 22.6875 33.7871 24.3047 31.291 24.3047C28.7949 24.3047 26.9141 22.6875 26.9141 20.3848C26.9141 18.1348 28.7949 16.4824 31.291 16.5ZM31.291 18.416C30.0078 18.416 29.0938 19.1367 29.1113 20.3848C29.0938 21.668 30.0078 22.4062 31.291 22.4062C32.5391 22.4062 33.4531 21.668 33.4531 20.3848C33.4531 19.1367 32.5391 18.416 31.291 18.416ZM56.207 15.6211V24.9902H53.9746V22.9512H50.9863V24.1113H43.3926V16.7988H50.9863V17.959H53.9746V15.6211H56.207ZM45.625 18.5742V22.3359H48.7891V18.5742H45.625ZM50.7402 25.4121C54.1504 25.4121 56.2422 26.5547 56.2598 28.5234C56.2422 30.4922 54.1504 31.6172 50.7402 31.6172C47.3301 31.6172 45.2383 30.4922 45.2383 28.5234C45.2383 26.5547 47.3301 25.4121 50.7402 25.4121ZM50.7402 27.1172C48.6133 27.1172 47.4707 27.5742 47.4707 28.5234C47.4707 29.4375 48.6133 29.9121 50.7402 29.9121C52.8672 29.9121 54.0273 29.4375 54.0273 28.5234C54.0273 27.5742 52.8672 27.1172 50.7402 27.1172ZM50.9863 21.1406H53.9746V19.7344H50.9863V21.1406Z" fill="#2F2E36"/>
<path d="M71 35C76.5228 35 81 30.5228 81 25C81 19.4772 76.5228 15 71 15C65.4772 15 61 19.4772 61 25C61 30.5228 65.4772 35 71 35Z" fill="#B8B8B8"/>
<path d="M75.6667 19L68.6667 26.2L66.3333 23.8L64 26.2L68.6667 31L78 21.4L75.6667 19Z" fill="white"/>
</svg>
