<svg width="12" height="11" viewBox="0 0 12 11" fill="none" xmlns="http://www.w3.org/2000/svg">
<path d="M5.74163 8.61775C5.90053 8.52184 6.09947 8.52184 6.25837 8.61775L8.6935 10.0875C9.07216 10.316 9.53927 9.97655 9.43879 9.54583L8.79256 6.77571C8.7504 6.59496 8.81182 6.40573 8.9521 6.2842L11.1043 4.41975C11.4386 4.13014 11.2599 3.58101 10.8192 3.54362L7.98643 3.30329C7.80164 3.28762 7.64071 3.17095 7.56834 3.0002L6.46036 0.385989C6.28807 -0.0205247 5.71193 -0.0205246 5.53964 0.38599L4.43166 3.0002C4.35929 3.17095 4.19836 3.28762 4.01357 3.30329L1.18082 3.54362C0.740102 3.58101 0.561398 4.13014 0.895697 4.41975L3.0479 6.2842C3.18818 6.40573 3.2496 6.59496 3.20744 6.77571L2.56121 9.54583C2.46073 9.97655 2.92784 10.316 3.3065 10.0875L5.74163 8.61775Z" fill="#F2AB58"/>
</svg>
