<svg width="24" height="24" viewBox="0 0 24 24" fill="none" xmlns="http://www.w3.org/2000/svg">
<path d="M20.8347 4.55248C19.7692 3.49086 18.3263 2.89478 16.8222 2.89478C15.3181 2.89478 13.8752 3.49086 12.8097 4.55248L11.9997 5.36248L11.1897 4.55248C10.1242 3.49086 8.68134 2.89478 7.17721 2.89478C5.67307 2.89478 4.23024 3.49086 3.16471 4.55248C2.10262 5.6193 1.50635 7.06337 1.50635 8.56874C1.50635 10.0741 2.10262 11.5182 3.16471 12.585L11.4672 20.8875C11.5369 20.9578 11.6199 21.0136 11.7113 21.0517C11.8027 21.0897 11.9007 21.1093 11.9997 21.1093C12.0987 21.1093 12.1967 21.0897 12.2881 21.0517C12.3795 21.0136 12.4625 20.9578 12.5322 20.8875L20.8347 12.585C21.8968 11.5182 22.4931 10.0741 22.4931 8.56874C22.4931 7.06337 21.8968 5.6193 20.8347 4.55248Z" fill="#C5C5C5"/>
</svg>
